<svg xmlns="http://www.w3.org/2000/svg" width="52.237" height="71.836" viewBox="0 0 52.237 71.836"><defs><style>.a{fill:#1d1d1d;}.b{fill:#79c843;}</style></defs><g transform="translate(1313.6 1059.512)"><path class="a" d="M-1261.363-1059.512q0,23.48-.007,46.959,0,12.038,0,24.076v.8h-52.222v-.941q0-35.1,0-70.194c0-.234,0-.468-.007-.7Zm-3.236,68.66v-65.4h-45.766v65.4Z"/><path class="b" d="M-1263.965-966.483a4.179,4.179,0,0,0,.57-.876q2.3-6.763,4.54-13.544a.936.936,0,0,1,1.074-.776c3.3.037,6.6.008,9.9.027a1.1,1.1,0,0,0,1.078-.542,2.168,2.168,0,0,1,3.658,0,1.1,1.1,0,0,0,1.082.539c3.322-.017,6.645.009,9.967-.026a.858.858,0,0,1,.975.717q2.246,6.779,4.542,13.541a2.5,2.5,0,0,0,.664.9c.17,2.588-2.533,5.022-5.678,5.146-3.537.14-6.4-2.082-6.579-5,.26-.294.569-.495.662-.769,1.427-4.173,2.826-8.356,4.23-12.536.043-.128.068-.263.117-.457-.247-.019-.447-.048-.647-.048-2.808,0-5.615,0-8.423-.007a.863.863,0,0,0-.85.436,2.235,2.235,0,0,1-3.815.013,1.033,1.033,0,0,0-.686-.425c-2.948-.028-5.9-.018-8.844-.015a3.079,3.079,0,0,0-.343.045c.049.215.075.413.138.6q2.065,6.138,4.149,12.269a2.128,2.128,0,0,0,.629.771c.109,2.607-2.605,5.027-5.733,5.129-3.558.116-6.366-2.083-6.56-5.136Zm6.088-12.751-.177.005-4.213,12.55h8.608Zm25.982.023-.192,0-4.206,12.522h8.605Zm-13.085-.77a1.007,1.007,0,0,0,.974-.984.99.99,0,0,0-.969-.91.992.992,0,0,0-.974.976A1.011,1.011,0,0,0-1244.98-979.981Z" transform="translate(-42.504 -65.598)"/><path class="a" d="M-1264.376-685.691v-2.076h38.39v2.076Z" transform="translate(-42.312 -319.544)"/><path class="a" d="M-1264.225-653.843v-2.1h38.37v2.1Z" transform="translate(-42.442 -346.894)"/><path class="a" d="M-1264.3-717.439v-2.044h38.383v2.044Z" transform="translate(-42.379 -292.281)"/><path class="a" d="M-1156.288-944.652h2.448v.8c0,6.2.007,12.4-.011,18.6,0,.528.129.805.664.942.7.179,1.369.465,2.063.669.833.244.453.909.487,1.4.037.536-.441.377-.726.379-2.48.012-4.961.015-7.441-.01-.235,0-.677-.248-.666-.334.062-.47-.4-1.117.378-1.385.728-.25,1.446-.538,2.187-.735.512-.136.627-.4.626-.9q-.023-9.3-.009-18.6Z" transform="translate(-132.417 -98.731)"/><path class="a" d="M-1264.372-621.982v-2.071h29.547v2.071Z" transform="translate(-42.315 -374.311)"/><path class="a" d="M-1193.406-758.266v-2.04h18.454v2.04Z" transform="translate(-103.316 -257.191)"/><path class="a" d="M-1133.723-1006.556h-2.378a13.345,13.345,0,0,1,.02-1.9,1.044,1.044,0,0,1,1.228-.883,1.077,1.077,0,0,1,1.116,1.033A16.037,16.037,0,0,1-1133.723-1006.556Z" transform="translate(-152.551 -43.121)"/></g></svg>